<svg width="34" height="30" viewBox="0 0 34 30" fill="none" xmlns="http://www.w3.org/2000/svg">
<g clip-path="url(#clip0_367_2087)">
<path d="M33.2908 8.95039C33.1064 8.2128 32.8936 7.51776 32.6525 6.85109C31.6454 4.95039 30.2979 3.56031 28.8936 2.62414C26.1702 0.780172 23.2057 0.113505 20.2553 0.0567677C20.1418 0.0567677 20.0284 0.0283989 19.9291 0.0283989C19.2199 -0.0283387 18.539 0.0283989 17.8865 0.12769C17.234 0.184427 16.5957 0.255349 15.9574 0.340456C14.1277 0.609959 12.3972 1.04968 10.5816 1.81563C9.19149 2.39719 7.90071 3.88656 6.56737 4.87946C6.38298 5.13478 6.19858 5.3901 6.01418 5.63124C5.88652 5.80145 5.73049 5.90074 5.58865 6.04258C5.1773 6.45393 4.76596 6.87946 4.36879 7.29081C4.2695 7.3901 4.1844 7.54613 4.0851 7.56031C3.67376 7.61705 3.44681 8.11351 3.20567 8.59578C3.12057 8.78017 3.02127 8.96457 2.92198 9.1206C2.48227 9.80145 2.11347 10.5674 1.95744 11.6171C1.94326 11.7589 1.88652 11.8866 1.82979 12C1.50354 12.7518 1.39007 13.6596 1.21986 14.539C1.1773 14.766 1.21986 15.0497 1.24822 15.3759C1.37588 15.2624 1.44681 15.1773 1.53191 15.1064C1.53191 15.1773 1.56028 15.2624 1.57447 15.3334C1.48936 15.7589 1.39007 16.1986 1.29078 16.6951C1.19149 16.4539 1.12057 16.2979 1.00709 16.0426C0.921984 16.9362 0.822693 17.6738 0.822693 18.4256C0.822693 19.0497 0.907799 19.688 0.950352 20.3121C1.00709 21.1064 1.20567 21.7873 1.46099 22.4256C1.61702 22.8511 1.85815 23.1915 1.97163 23.6454C2.11347 24.2128 2.41135 24.2695 2.6383 24.4681C2.75177 24.5674 2.9078 24.6241 3.03546 24.7376C3.56028 25.2341 4.0851 25.7589 4.62411 26.1986C5.12057 26.61 5.61702 27.0213 6.14184 27.2766C6.32624 27.3617 6.49645 27.4752 6.68085 27.5887C7.84397 28.1702 8.97872 28.8085 10.2269 29.1915C11.4752 29.5603 12.7234 29.8298 13.9858 30C14.8227 29.9149 15.6596 29.8014 16.4823 29.6738C17.305 29.5461 18.1418 29.3617 18.9504 29.1206C19.4043 28.9929 19.8723 29.0639 20.3121 28.6667C20.5532 28.4397 20.8511 28.3972 21.1348 28.3121C22 28.0568 22.8369 27.5887 23.6738 27.149C24.5816 26.6667 25.4043 25.8582 26.2411 25.0922C26.4965 24.8653 26.7518 24.6667 27.0071 24.4539C26.5957 24.5958 26.2128 24.8511 25.8156 25.078C25.4326 25.2908 25.078 25.688 24.6667 25.7305C25.2482 25.1348 25.9007 24.8795 26.4539 24.2128C26 24.3972 25.5745 24.6951 25.1489 24.9504C26.5816 23.844 27.844 22.5958 28.8511 21.2341C29.305 20.7802 29.7447 20.3121 30.1986 19.8582C30.156 20.0426 30.1277 20.1702 30.0993 20.2837C30.3404 20.2554 30.5816 20.2837 30.6667 19.7873C30.6667 19.7447 30.7092 19.7163 30.7234 19.688C31.1773 19.2199 31.5035 18.4965 31.844 17.8014C31.9149 17.6454 32.0142 17.5319 32.0993 17.4043L32.1844 17.5319C31.9149 18.5107 31.4468 19.2624 31.1064 20.1702C31.3759 19.7873 31.6312 19.3759 31.8582 18.9362C32.1986 18.2412 32.5106 17.5036 32.7234 16.6383C32.7943 16.3546 32.8511 15.9575 33.1064 15.9858C33.234 15.844 33.3759 15.688 33.2199 15.3759C33.1773 15.4327 33.1348 15.4752 33.0213 15.6171C33.0922 15.3475 33.1064 15.1773 33.1631 15.1206C33.3901 14.8795 33.4468 14.4965 33.4752 14.071C33.5035 13.7731 33.5319 13.4894 33.5745 13.2057C33.7872 11.7447 33.6596 10.2979 33.3333 8.97875L33.2908 8.95039ZM24.3688 25.7022C23.3617 26.5532 22.2979 27.0497 21.1915 27.3475C22.5674 26.6951 23.8723 25.9007 25.0638 24.9929C24.8369 25.2483 24.6099 25.5036 24.3546 25.7022H24.3688Z" fill="#7A5C4C"/>
<g clip-path="url(#clip1_367_2087)">
<path d="M21.3641 15.7162L21.866 12.3644H18.7212V10.1857C18.7212 9.26914 19.1617 8.37357 20.5702 8.37357H21.9992V5.51927C21.9992 5.51927 20.7033 5.29407 19.4587 5.29407C16.8671 5.29407 15.1718 6.9019 15.1718 9.80858V12.3644H12.2933V15.7162H15.1718V23.8235H18.7161V15.7162H21.3589H21.3641Z" fill="#F5E"/>
</g>
</g>
<defs>
<clipPath id="clip0_367_2087">
<rect width="32.8227" height="30" fill="white" transform="translate(0.822693)"/>
</clipPath>
<clipPath id="clip1_367_2087">
<rect width="9.70588" height="18.5294" fill="white" transform="translate(12.2933 5.29407)"/>
</clipPath>
</defs>
</svg>
