<svg width="34" height="30" viewBox="0 0 34 30" fill="none" xmlns="http://www.w3.org/2000/svg">
<g clip-path="url(#clip0_367_2091)">
<path d="M33.1135 8.95039C32.9291 8.2128 32.7163 7.51776 32.4752 6.85109C31.4681 4.95039 30.1206 3.56031 28.7163 2.62414C25.9929 0.780172 23.0284 0.113505 20.078 0.0567677C19.9645 0.0567677 19.8511 0.0283989 19.7518 0.0283989C19.0426 -0.0283387 18.3617 0.0283989 17.7092 0.12769C17.0567 0.184427 16.4184 0.255349 15.7801 0.340456C13.9504 0.609959 12.2199 1.04968 10.4043 1.81563C9.01418 2.39719 7.7234 3.88656 6.39007 4.87946C6.20567 5.13478 6.02127 5.3901 5.83688 5.63124C5.70922 5.80145 5.55319 5.90074 5.41134 6.04258C5 6.45393 4.58865 6.87946 4.19149 7.29081C4.09219 7.3901 4.00709 7.54613 3.9078 7.56031C3.49645 7.61705 3.2695 8.11351 3.02836 8.59578C2.94326 8.78017 2.84397 8.96457 2.74468 9.1206C2.30496 9.80145 1.93617 10.5674 1.78014 11.6171C1.76595 11.7589 1.70922 11.8866 1.65248 12C1.32624 12.7518 1.21276 13.6596 1.04255 14.539C0.999996 14.766 1.04255 15.0497 1.07092 15.3759C1.19858 15.2624 1.2695 15.1773 1.35461 15.1064C1.35461 15.1773 1.38297 15.2624 1.39716 15.3334C1.31205 15.7589 1.21276 16.1986 1.11347 16.6951C1.01418 16.4539 0.943258 16.2979 0.829783 16.0426C0.744677 16.9362 0.645386 17.6738 0.645386 18.4256C0.645386 19.0497 0.730492 19.688 0.773045 20.3121C0.829783 21.1064 1.02836 21.7873 1.28368 22.4256C1.43971 22.8511 1.68085 23.1915 1.79432 23.6454C1.93617 24.2128 2.23404 24.2695 2.46099 24.4681C2.57446 24.5674 2.73049 24.6241 2.85815 24.7376C3.38297 25.2341 3.9078 25.7589 4.4468 26.1986C4.94326 26.61 5.43971 27.0213 5.96454 27.2766C6.14893 27.3617 6.31915 27.4752 6.50354 27.5887C7.66666 28.1702 8.80142 28.8085 10.0496 29.1915C11.2979 29.5603 12.5461 29.8298 13.8085 30C14.6454 29.9149 15.4823 29.8014 16.305 29.6738C17.1277 29.5461 17.9645 29.3617 18.773 29.1206C19.2269 28.9929 19.695 29.0639 20.1347 28.6667C20.3759 28.4397 20.6738 28.3972 20.9574 28.3121C21.8227 28.0568 22.6596 27.5887 23.4965 27.149C24.4043 26.6667 25.2269 25.8582 26.0638 25.0922C26.3191 24.8653 26.5745 24.6667 26.8298 24.4539C26.4184 24.5958 26.0355 24.8511 25.6383 25.078C25.2553 25.2908 24.9007 25.688 24.4894 25.7305C25.0709 25.1348 25.7234 24.8795 26.2766 24.2128C25.8227 24.3972 25.3972 24.6951 24.9716 24.9504C26.4043 23.844 27.6667 22.5958 28.6738 21.2341C29.1277 20.7802 29.5674 20.3121 30.0213 19.8582C29.9787 20.0426 29.9504 20.1702 29.922 20.2837C30.1631 20.2554 30.4043 20.2837 30.4894 19.7873C30.4894 19.7447 30.5319 19.7163 30.5461 19.688C31 19.2199 31.3262 18.4965 31.6667 17.8014C31.7376 17.6454 31.8369 17.5319 31.922 17.4043L32.0071 17.5319C31.7376 18.5107 31.2695 19.2624 30.9291 20.1702C31.1986 19.7873 31.4539 19.3759 31.6808 18.9362C32.0213 18.2412 32.3333 17.5036 32.5461 16.6383C32.617 16.3546 32.6738 15.9575 32.9291 15.9858C33.0567 15.844 33.1986 15.688 33.0426 15.3759C33 15.4327 32.9574 15.4752 32.844 15.6171C32.9149 15.3475 32.9291 15.1773 32.9858 15.1206C33.2128 14.8795 33.2695 14.4965 33.2979 14.071C33.3262 13.7731 33.3546 13.4894 33.3972 13.2057C33.6099 11.7447 33.4823 10.2979 33.156 8.97875L33.1135 8.95039ZM24.1915 25.7022C23.1844 26.5532 22.1206 27.0497 21.0142 27.3475C22.3901 26.6951 23.695 25.9007 24.8865 24.9929C24.6596 25.2483 24.4326 25.5036 24.1773 25.7022H24.1915Z" fill="#7A5C4C"/>
<g clip-path="url(#clip1_367_2091)">
<path fill-rule="evenodd" clip-rule="evenodd" d="M14.1538 21.9958H20.1428L20.147 22C22.6308 22 24.6526 19.9782 24.6526 17.4945V11.5055C24.6526 9.02176 22.6308 7 20.147 7H14.1581C11.6743 7 9.65255 9.02176 9.64832 11.5013V17.4903C9.64832 19.974 11.6701 21.9958 14.1538 21.9958ZM11.064 11.5055C11.064 9.7974 12.4542 8.41142 14.1581 8.41142H20.147C21.8552 8.41142 23.2411 9.80164 23.2411 11.5055V17.4945C23.2411 19.2026 21.8509 20.5886 20.147 20.5886H14.1581C12.45 20.5886 11.064 19.1984 11.064 17.4945V11.5055ZM21.1218 9.67882C20.6344 9.67882 20.2445 10.073 20.2445 10.5562C20.2445 11.0394 20.6387 11.4336 21.1218 11.4336C21.605 11.4336 21.9992 11.0394 21.9992 10.5562C21.9992 10.073 21.605 9.67882 21.1218 9.67882ZM17.2141 10.8064C15.1796 10.8064 13.5224 12.4636 13.5224 14.4981C13.5224 16.5326 15.1796 18.1898 17.2141 18.1898C19.2486 18.1898 20.9058 16.5326 20.9058 14.4981C20.9058 12.4636 19.2486 10.8064 17.2141 10.8064ZM17.2141 16.8632C15.9087 16.8632 14.849 15.8035 14.849 14.4981C14.849 13.1926 15.9087 12.133 17.2141 12.133C18.5196 12.133 19.5792 13.1926 19.5792 14.4981C19.5792 15.8035 18.5196 16.8632 17.2141 16.8632Z" fill="#F5EBE5"/>
</g>
</g>
<defs>
<clipPath id="clip0_367_2091">
<rect width="32.8227" height="30" fill="white" transform="translate(0.645386)"/>
</clipPath>
<clipPath id="clip1_367_2091">
<rect width="15" height="17" fill="white" transform="translate(9.64539 6)"/>
</clipPath>
</defs>
</svg>
