<svg width="33" height="30" viewBox="0 0 33 30" fill="none" xmlns="http://www.w3.org/2000/svg">
<g clip-path="url(#clip0_367_2121)">
<path d="M32.4681 8.95039C32.2837 8.2128 32.0709 7.51776 31.8298 6.85109C30.8227 4.95039 29.4752 3.56031 28.0709 2.62414C25.3475 0.780172 22.383 0.113505 19.4326 0.0567677C19.3192 0.0567677 19.2057 0.0283989 19.1064 0.0283989C18.3972 -0.0283387 17.7163 0.0283989 17.0638 0.12769C16.4113 0.184427 15.7731 0.255349 15.1348 0.340456C13.305 0.609959 11.5745 1.04968 9.75887 1.81563C8.3688 2.39719 7.07802 3.88656 5.74468 4.87946C5.56028 5.13478 5.37589 5.3901 5.19149 5.63124C5.06383 5.80145 4.9078 5.90074 4.76596 6.04258C4.35461 6.45393 3.94326 6.87946 3.5461 7.29081C3.44681 7.3901 3.3617 7.54613 3.26241 7.56031C2.85106 7.61705 2.62411 8.11351 2.38298 8.59578C2.29787 8.78017 2.19858 8.96457 2.09929 9.1206C1.65957 9.80145 1.29078 10.5674 1.13475 11.6171C1.12057 11.7589 1.06383 11.8866 1.00709 12C0.680851 12.7518 0.567376 13.6596 0.397163 14.539C0.35461 14.766 0.397163 15.0497 0.425532 15.3759C0.553192 15.2624 0.624114 15.1773 0.70922 15.1064C0.70922 15.1773 0.737589 15.2624 0.751773 15.3334C0.666667 15.7589 0.567376 16.1986 0.468085 16.6951C0.368794 16.4539 0.297872 16.2979 0.184397 16.0426C0.0992908 16.9362 0 17.6738 0 18.4256C0 19.0497 0.0851064 19.688 0.12766 20.3121C0.184397 21.1064 0.382979 21.7873 0.638298 22.4256C0.794326 22.8511 1.03546 23.1915 1.14894 23.6454C1.29078 24.2128 1.58865 24.2695 1.8156 24.4681C1.92908 24.5674 2.08511 24.6241 2.21277 24.7376C2.73759 25.2341 3.26241 25.7589 3.80142 26.1986C4.29787 26.61 4.79433 27.0213 5.31915 27.2766C5.50355 27.3617 5.67376 27.4752 5.85816 27.5887C7.02128 28.1702 8.15603 28.8085 9.40426 29.1915C10.6525 29.5603 11.9007 29.8298 13.1631 30C14 29.9149 14.8369 29.8014 15.6596 29.6738C16.4823 29.5461 17.3192 29.3617 18.1277 29.1206C18.5816 28.9929 19.0496 29.0639 19.4894 28.6667C19.7305 28.4397 20.0284 28.3972 20.3121 28.3121C21.1773 28.0568 22.0142 27.5887 22.8511 27.149C23.7589 26.6667 24.5816 25.8582 25.4184 25.0922C25.6738 24.8653 25.9291 24.6667 26.1844 24.4539C25.7731 24.5958 25.3901 24.8511 24.9929 25.078C24.6099 25.2908 24.2553 25.688 23.844 25.7305C24.4255 25.1348 25.078 24.8795 25.6312 24.2128C25.1773 24.3972 24.7518 24.6951 24.3262 24.9504C25.7589 23.844 27.0213 22.5958 28.0284 21.2341C28.4823 20.7802 28.922 20.3121 29.3759 19.8582C29.3333 20.0426 29.305 20.1702 29.2766 20.2837C29.5177 20.2554 29.7589 20.2837 29.844 19.7873C29.844 19.7447 29.8865 19.7163 29.9007 19.688C30.3546 19.2199 30.6809 18.4965 31.0213 17.8014C31.0922 17.6454 31.1915 17.5319 31.2766 17.4043L31.3617 17.5319C31.0922 18.5107 30.6241 19.2624 30.2837 20.1702C30.5532 19.7873 30.8085 19.3759 31.0355 18.9362C31.3759 18.2412 31.6879 17.5036 31.9007 16.6383C31.9716 16.3546 32.0284 15.9575 32.2837 15.9858C32.4114 15.844 32.5532 15.688 32.3972 15.3759C32.3546 15.4327 32.3121 15.4752 32.1986 15.6171C32.2695 15.3475 32.2837 15.1773 32.3404 15.1206C32.5674 14.8795 32.6241 14.4965 32.6525 14.071C32.6809 13.7731 32.7092 13.4894 32.7518 13.2057C32.9645 11.7447 32.8369 10.2979 32.5106 8.97875L32.4681 8.95039ZM23.5461 25.7022C22.539 26.5532 21.4752 27.0497 20.3688 27.3475C21.7447 26.6951 23.0496 25.9007 24.2411 24.9929C24.0142 25.2483 23.7872 25.5036 23.5319 25.7022H23.5461Z" fill="#7A5C4C"/>
<g clip-path="url(#clip1_367_2121)">
<path d="M22.689 8H11.311C10.0355 8 9 8.98861 9 10.2063V17.7937C9 19.0114 10.0355 20 11.311 20H22.689C23.9645 20 25 19.0114 25 17.7937V10.2063C25 8.98861 23.9645 8 22.689 8ZM22.689 9.05291C22.7816 9.05291 22.8742 9.06497 22.9626 9.08506L18.1639 14.2853C17.8692 14.6028 17.4441 14.7877 17.0021 14.7877C16.5601 14.7877 16.135 14.6068 15.8403 14.2853L11.0374 9.08506C11.1258 9.06497 11.2184 9.05291 11.311 9.05291H22.689ZM23.8929 17.7937C23.8929 18.4287 23.3541 18.9431 22.689 18.9431H11.311C10.6459 18.9431 10.1071 18.4287 10.1071 17.7937V10.2063C10.1071 10.0536 10.1408 9.90489 10.1955 9.76825L15.0068 14.9806C15.512 15.5271 16.236 15.8406 16.9979 15.8406C17.7598 15.8406 18.4838 15.5271 18.989 14.9806L23.8003 9.76825C23.8592 9.90087 23.8887 10.0496 23.8887 10.2063V17.7937H23.8929Z" fill="#F5EBE5"/>
</g>
</g>
<defs>
<clipPath id="clip0_367_2121">
<rect width="32.8227" height="30" fill="white"/>
</clipPath>
<clipPath id="clip1_367_2121">
<rect width="16" height="14" fill="white" transform="translate(9 7)"/>
</clipPath>
</defs>
</svg>
