<svg width="34" height="30" viewBox="0 0 34 30" fill="none" xmlns="http://www.w3.org/2000/svg">
<g clip-path="url(#clip0_367_2098)">
<path d="M32.9362 8.95039C32.7518 8.2128 32.539 7.51776 32.2979 6.85109C31.2908 4.95039 29.9433 3.56031 28.539 2.62414C25.8156 0.780172 22.8511 0.113505 19.9007 0.0567677C19.7872 0.0567677 19.6738 0.0283989 19.5745 0.0283989C18.8653 -0.0283387 18.1844 0.0283989 17.5319 0.12769C16.8794 0.184427 16.2411 0.255349 15.6028 0.340456C13.7731 0.609959 12.0426 1.04968 10.227 1.81563C8.83689 2.39719 7.54611 3.88656 6.21278 4.87946C6.02838 5.13478 5.84398 5.3901 5.65958 5.63124C5.53192 5.80145 5.3759 5.90074 5.23405 6.04258C4.8227 6.45393 4.41136 6.87946 4.01419 7.29081C3.9149 7.3901 3.8298 7.54613 3.73051 7.56031C3.31916 7.61705 3.09221 8.11351 2.85107 8.59578C2.76597 8.78017 2.66668 8.96457 2.56738 9.1206C2.12767 9.80145 1.75887 10.5674 1.60285 11.6171C1.58866 11.7589 1.53192 11.8866 1.47519 12C1.14894 12.7518 1.03547 13.6596 0.865257 14.539C0.822704 14.766 0.865257 15.0497 0.893626 15.3759C1.02129 15.2624 1.09221 15.1773 1.17731 15.1064C1.17731 15.1773 1.20568 15.2624 1.21987 15.3334C1.13476 15.7589 1.03547 16.1986 0.936179 16.6951C0.836888 16.4539 0.765966 16.2979 0.652491 16.0426C0.567385 16.9362 0.468094 17.6738 0.468094 18.4256C0.468094 19.0497 0.5532 19.688 0.595753 20.3121C0.652491 21.1064 0.851073 21.7873 1.10639 22.4256C1.26242 22.8511 1.50355 23.1915 1.61703 23.6454C1.75887 24.2128 2.05675 24.2695 2.2837 24.4681C2.39717 24.5674 2.5532 24.6241 2.68086 24.7376C3.20568 25.2341 3.73051 25.7589 4.26951 26.1986C4.76597 26.61 5.26242 27.0213 5.78724 27.2766C5.97164 27.3617 6.14185 27.4752 6.32625 27.5887C7.48937 28.1702 8.62412 28.8085 9.87235 29.1915C11.1206 29.5603 12.3688 29.8298 13.6312 30C14.4681 29.9149 15.305 29.8014 16.1277 29.6738C16.9504 29.5461 17.7872 29.3617 18.5958 29.1206C19.0497 28.9929 19.5177 29.0639 19.9575 28.6667C20.1986 28.4397 20.4965 28.3972 20.7802 28.3121C21.6454 28.0568 22.4823 27.5887 23.3192 27.149C24.227 26.6667 25.0497 25.8582 25.8865 25.0922C26.1419 24.8653 26.3972 24.6667 26.6525 24.4539C26.2411 24.5958 25.8582 24.8511 25.461 25.078C25.078 25.2908 24.7234 25.688 24.3121 25.7305C24.8936 25.1348 25.5461 24.8795 26.0993 24.2128C25.6454 24.3972 25.2199 24.6951 24.7943 24.9504C26.227 23.844 27.4894 22.5958 28.4965 21.2341C28.9504 20.7802 29.3901 20.3121 29.844 19.8582C29.8014 20.0426 29.7731 20.1702 29.7447 20.2837C29.9858 20.2554 30.227 20.2837 30.3121 19.7873C30.3121 19.7447 30.3546 19.7163 30.3688 19.688C30.8227 19.2199 31.1489 18.4965 31.4894 17.8014C31.5603 17.6454 31.6596 17.5319 31.7447 17.4043L31.8298 17.5319C31.5603 18.5107 31.0922 19.2624 30.7518 20.1702C31.0213 19.7873 31.2766 19.3759 31.5036 18.9362C31.844 18.2412 32.156 17.5036 32.3688 16.6383C32.4397 16.3546 32.4965 15.9575 32.7518 15.9858C32.8794 15.844 33.0213 15.688 32.8653 15.3759C32.8227 15.4327 32.7802 15.4752 32.6667 15.6171C32.7376 15.3475 32.7518 15.1773 32.8085 15.1206C33.0355 14.8795 33.0922 14.4965 33.1206 14.071C33.1489 13.7731 33.1773 13.4894 33.2199 13.2057C33.4326 11.7447 33.305 10.2979 32.9787 8.97875L32.9362 8.95039ZM24.0142 25.7022C23.0071 26.5532 21.9433 27.0497 20.8369 27.3475C22.2128 26.6951 23.5177 25.9007 24.7092 24.9929C24.4823 25.2483 24.2553 25.5036 24 25.7022H24.0142Z" fill="#7A5C4C"/>
<g clip-path="url(#clip1_367_2098)">
<path fill-rule="evenodd" clip-rule="evenodd" d="M15.9053 17.4375C15.8911 17.4827 15.8769 17.5234 15.8674 17.5596C15.2506 19.8615 15.1842 20.3725 14.5484 21.4443C14.2447 21.9508 13.9079 22.4347 13.5283 22.896C13.4856 22.9502 13.4477 23.0135 13.3623 23C13.2674 22.9819 13.2626 22.9005 13.2531 22.8326C13.1535 22.1317 13.0966 21.4307 13.1203 20.7252C13.1535 19.8072 13.2721 19.4906 14.5152 14.5025C14.5342 14.4256 14.5152 14.3623 14.4867 14.2945C14.1878 13.5302 14.1309 12.7524 14.3918 11.961C14.9564 10.2606 16.9776 10.1294 17.3334 11.5313C17.5517 12.3996 16.9728 13.5347 16.5316 15.217C16.1663 16.6009 17.8743 17.5867 19.3404 16.5783C20.6878 15.6467 21.2144 13.4081 21.1148 11.8253C20.9203 8.66419 17.286 7.98132 14.9801 8.99884C12.3374 10.1656 11.7349 13.286 12.9305 14.7151C13.0823 14.896 13.1962 15.009 13.1488 15.1899C13.0728 15.4748 13.0064 15.7642 12.921 16.0492C12.8593 16.2617 12.6743 16.3386 12.4513 16.2527C12.0101 16.0853 11.6447 15.814 11.3458 15.4658C10.3305 14.2674 10.0411 11.9022 11.3838 9.89879C12.8546 7.6738 15.6206 6.77386 18.14 7.0452C21.1528 7.37081 23.0553 9.3335 23.4112 11.5585C23.5725 12.5715 23.4586 15.0723 21.9641 16.8406C20.2466 18.8711 17.4615 19.0068 16.1805 17.7586C16.0809 17.6636 16.0002 17.5506 15.9053 17.4375Z" fill="#F5EBE5"/>
</g>
</g>
<defs>
<clipPath id="clip0_367_2098">
<rect width="32.8227" height="30" fill="white" transform="translate(0.468094)"/>
</clipPath>
<clipPath id="clip1_367_2098">
<rect width="13" height="16" fill="white" transform="translate(10.4681 7)"/>
</clipPath>
</defs>
</svg>
